<?xml version="1.0" encoding="iso-8859-1"?>
<!-- Uploaded to: SVG Repo, www.svgrepo.com, Generator: SVG Repo Mixer Tools -->
<!DOCTYPE svg PUBLIC "-//W3C//DTD SVG 1.1//EN" "http://www.w3.org/Graphics/SVG/1.1/DTD/svg11.dtd">
<svg fill="#000000" version="1.1" id="Capa_1" xmlns="http://www.w3.org/2000/svg" xmlns:xlink="http://www.w3.org/1999/xlink" 
	 width="800px" height="800px" viewBox="0 0 45.667 45.667"
	 xml:space="preserve">
<g>
	<g>
		<circle cx="20.502" cy="8.771" r="1.825"/>
		<circle cx="12.502" cy="14.771" r="1.825"/>
		<circle cx="22.503" cy="16.771" r="1.825"/>
		<circle cx="28.502" cy="10.771" r="1.825"/>
		<circle cx="33.502" cy="18.771" r="1.825"/>
		<circle cx="28.502" cy="24.771" r="1.825"/>
		<circle cx="16.502" cy="21.771" r="1.825"/>
		<path d="M38.05,37.359C33.955,40.872,28.639,43,22.834,43c-5.805,0-11.121-2.129-15.217-5.641c-1.689,1.287-2.784,3.312-2.784,5.6
			c0,1.496,1.212,2.708,2.708,2.708h30.584c1.496,0,2.708-1.212,2.708-2.708C40.833,40.672,39.739,38.646,38.05,37.359z"/>
		<path d="M22.833,39.167c10.798,0,19.583-8.785,19.583-19.583S33.632,0,22.833,0S3.25,8.785,3.25,19.584
			S12.036,39.167,22.833,39.167z M22.833,4c8.606,0,15.583,6.977,15.583,15.583c0,4.202-1.671,8.008-4.375,10.812
			c-4.21,0.369-8.775-1.893-14.875-3.645c-5.332-1.531-8.384-0.496-9.91,0.469C7.984,24.961,7.25,22.36,7.25,19.583
			C7.25,10.978,14.228,4,22.833,4z"/>
	</g>
</g>
</svg>